<?xml version="1.0" encoding="utf-8"?>
<!-- Generator: Adobe Illustrator 25.4.1, SVG Export Plug-In . SVG Version: 6.00 Build 0)  -->
<svg version="1.1" id="Calque_1" xmlns="http://www.w3.org/2000/svg" xmlns:xlink="http://www.w3.org/1999/xlink" x="0px" y="0px"
	 viewBox="0 0 4000 4000" style="enable-background:new 0 0 4000 4000;" xml:space="preserve">
<style type="text/css">
	.st0{fill:#4C62B1;}
</style>
<path class="st0" d="M1754.2,2581.5c-6.3,4.8-7.8,9.3-10.2,13.2c-49.7,83.7-99.1,167.5-152.5,248.8
	c-93.1,141.8-200.7,271.7-321.3,391.1c-48.2,47.7-103.5,85.9-162.3,119.3c-69.7,39.6-142,73.1-219.9,93.6
	c-70.4,18.4-141.7,25.9-214.3,19.3c-98.9-9.1-188.1-43.7-266.8-104.4c-56.7-43.9-91.4-102.6-111.1-170.6
	c-14.1-48.4-19.7-97.9-20.2-148c-1.3-112.9,16.3-223.2,45-332c24.4-92.6,58.3-181.7,94.5-270.2c64.8-157.9,130.5-315.3,201.9-470.3
	c30.2-65.8,64-130.1,95.9-195.1c54.1-109.9,107.5-220,166.5-327.4c29.7-54.1,60-107.8,91.2-161c2.3-4,5.7-7.6,6.1-13.3
	c-4.2-2.9-9-1.6-13.6-1.6c-98.7-0.1-197.2-0.1-295.9-0.1c-3.9,0-7.8,0-11.7,0c-18.8-0.1-24.4-5-27.4-23.9
	c-1.8-11.3-0.7-22.6,2.5-33.5c5.2-18.2,14.2-34.4,26.6-48.9c11.6-13.6,26.2-20.6,44.5-20.6c40.8-0.3,81.6-1.2,122.4-4.2
	c82.5-6.1,162.7-20.7,237-59.8c43.8-23.1,83-52,119.3-85.5c73.4-67.9,137.3-143.9,195-225.3c64.7-91.1,132.2-179.9,207.7-262.5
	c16.9-18.6,33-38.1,50.3-56.3c53.2-55.8,117.6-94.2,189.4-121c28.5-10.7,57.1-21,87.5-25c10.7-1.4,21.6-2.5,33.2,2.6
	c-93.9,137.3-182.8,277.1-267.9,419.3c-85.1,142.2-171.3,283.9-252.1,430.3c6.8,2.2,12,1.4,16.8,1.4c146.4,0,292.9,0,439.3,0.1
	c5.6,0,11.3-0.1,16.8,0.9c9.4,1.8,13.3,7.3,12.5,16.8c-1,11.5-5,22-10.7,31.8c-10.3,17.3-23.3,32.5-38.7,45.4
	c-14.5,12.1-30.8,18.1-50.2,18c-144.7-0.4-289.4-0.1-434.1-0.5c-11.7,0-17.6,3.8-23.2,13.7c-100,175.1-192.1,354.2-281.8,534.6
	c-112.1,225.5-217.4,454.3-313.9,687c-43.4,104.8-82.3,211-116.5,319.1c-25.2,79.4-40.9,160.7-45.8,243.9
	c-3.1,53.6-2.1,106.9,14.7,158.6c5.2,16.2,12,31.7,19.7,46.8c23.6,45.8,61.5,72,111.3,81.7c56.8,11.2,112.4,4.4,167.2-12
	c23.7-7.2,46.9-15.8,69.2-26.6c103.4-50.8,197.2-115.5,276.7-199c65-68.3,125.3-140.9,182.5-216c76.9-101.2,144.7-208.3,210.8-316.6
	c52.7-86.4,103.9-173.6,154.1-261.6c3.6-6.4,6.4-13.2,8.5-20.3c81.3-282.7,216.1-537.6,404.9-763.1
	c113.9-136.1,250.1-245.7,407.4-328.5c102.1-53.7,210.8-86.9,325.2-101.5c64.4-8.2,128.9-11.3,193.7-6.9
	c67.3,4.6,132.7,17.2,193.7,47.1c112.8,55.3,177.2,145.5,190.1,270.5c10.4,101.5-3.4,200.1-44.2,294.3
	c-19.8,45.9-38.3,92.2-63,135.8c-45.9,81.3-101.7,154.5-174.5,213.6c-22.9,18.6-47.2,35.6-73,50.1c-48.6,27-100.2,35.5-154.7,23.5
	c-11.9-2.6-22.9-7.7-34-13c-39-18.8-56.8-50.7-58.7-92.8c-1.6-35.3,6.1-69,19.6-101.5c17.3-42.2,42.9-79.4,71.7-114.5
	c42.4-51.6,91.2-95.3,151.6-125.1c55.3-27.2,113.9-42,175.2-46.4c25.7-1.8,25.7-1.4,33.9-25.4c14.2-41.2,24.8-83.3,26.2-127.1
	c2.5-74-17.6-140.7-64.9-198.4c-33.4-40.7-76.8-64.7-127.2-76.3c-78.5-18-156.2-12.8-233.1,9.1c-79.3,22.6-149.6,62.3-214.7,112.1
	c-105.1,80.6-193.2,177.3-268.4,285.7c-97,139.7-174.3,290.2-237.4,448c-55.1,137.9-95.8,280-121.9,426.1
	c-19.9,111.5-30.2,223.8-26.2,337.1c4.2,118.2,31.5,230.9,85.6,336.8c42.5,83.4,108.7,137,197.4,164.5c46.8,14.5,94.9,21,143.6,22.9
	c146.1,6.1,278.6-34.9,399.8-115.5c110.8-73.6,208.3-161.9,294.6-263.1c113.5-133.2,213.5-276.2,303.6-426.1
	c39-64.8,77.3-129.8,112.9-196.6c4.4-8.3,9-16.8,12.5-25.7c6-15.1,16.9-21.4,33.9-21c14.9,0.4,24.4,7.4,29.5,22.9
	c6.4,19.4,6.6,39.2,0.8,58.9c-3.3,10.9-7.8,21.2-13.3,31c-104.4,184.2-216.3,363.7-339.3,535.9c-107,149.9-236.6,277.4-389.9,380.1
	c-94.6,63.5-198.4,104.9-309.6,128.8c-102.6,22-206.3,28.5-311,22.9c-78.9-4.2-156-17.6-230.2-46.1
	c-100-38.5-179.8-101.7-238.5-191.8c-64.9-99.7-107-208-127.2-325.1c-14.3-83-17.9-166.6-13.6-250.5c1.4-28.2,3.4-56.3,5.9-84.5
	C1753.7,2592.9,1753.8,2588.6,1754.2,2581.5z"/>
</svg>
