<?xml version="1.0" encoding="utf-8"?>
<!-- Generator: Adobe Illustrator 25.4.1, SVG Export Plug-In . SVG Version: 6.00 Build 0)  -->
<svg version="1.1" id="Calque_1" xmlns="http://www.w3.org/2000/svg" xmlns:xlink="http://www.w3.org/1999/xlink" x="0px" y="0px"
	 viewBox="0 0 800.2 389.1" style="enable-background:new 0 0 800.2 389.1;" xml:space="preserve">
<style type="text/css">
	.st0{display:none;fill:none;stroke:#000000;stroke-width:10.0022;stroke-linecap:round;stroke-miterlimit:4.0009;}
</style>
<path class="st0" d="M26.5,163.2c62.6-49.6,130.4-92.6,202-128.1C185.4,125,84.5,176.2,40.2,265.5"/>
<path class="st0" d="M107.2,126.3c22.6,49.4,45.2,98.8,67.8,148.2"/>
<path class="st0" d="M181,149c2.1-6.2-7.1-11.5-12.9-8.4c-5.8,3.1-7.8,10.4-8.1,17c-0.6,12.9,4.2,26.9,15.2,33.4s28.4,1.8,31.4-10.7
	c1.8-7.6-1.7-15.4-6-22c-5.3-8-14.2-15.8-23.3-13c-8,2.5-11.5,12-12.2,20.4c-0.9,11.4,3.1,25.2,14.1,28.4c6.3,1.8,13.3-0.6,18.4-4.8
	c5-4.3,8.4-10.2,11.2-16.1c6.2-13.3,10.2-27.7,11.7-42.3c2.7,20.1,6.2,40,10.5,59.8c-1.6-19.8-3.2-39.8-0.9-59.5
	c0.5-4.6,2.5-10.3,7.1-10.4c2.9-0.1,5.2,2.2,7.1,4.4c13,15.5,20.7,35.4,21.7,55.6c-2.1-19-1.4-38.2,2-57c0.5-2.9,1.9-6.5,4.8-6.6
	c2.4-0.1,4.1,2.3,5.2,4.4c8.6,16.2,13.9,34.1,15.4,52.4"/>
<path class="st0" d="M312.5,114.7c23.3,54.4,47.9,108.3,73.9,161.5"/>
<path class="st0" d="M376.5,102.3c-21,82.8-50.8,163.4-88.8,240"/>
<path class="st0" d="M436.5,102.8c-0.8-3.2-4-5.4-7.2-5.9s-6.6,0.6-9.6,1.9c-11.1,5-20.1,15.1-22.1,27s4,25.2,15,30.3
	c5.5,2.5,11.7,3,17.8,2.8c7-0.2,14.5-1.4,19.6-6.2"/>
<path class="st0" d="M461.7,159c8.9,4.1,20.6,1.9,26.4-5.9c13.3-17.9,2.9-57.6-24.2-49.9C439.3,110.2,439.7,148.9,461.7,159z"/>
<path class="st0" d="M496.3,64.4c0.6,6.6,1.4,13.3,2.5,19.8c1.5,8.9,3.4,17.7,5.3,26.5c2.9,13.1,5.7,26.2,8.6,39.3
	c0.1,0.5,0.2,1.2-0.1,1.6c-0.4,0.4-1.3,0.2-1.1-0.4"/>
<path class="st0" d="M512.8,53.9c6.5,34,13,67.9,19.4,101.9"/>
<path class="st0" d="M542.9,117.2c3,0.9,6.3,0.6,9.4,0.1c6.1-0.9,12.3-2.6,17.2-6.5c4.9-3.8,8.2-10,7.3-16.2
	c-1-6.1-7-11.4-13.1-10.3c-6,1.1-9.6,7.3-11.6,13.1c-3,8.6-4.5,17.7-4.3,26.8c0.1,4.9,0.7,9.8,2.8,14.3
	c4.9,10.3,17.7,15.8,28.8,13.1c11.1-2.6,26.4-6.6,28.8-17.7"/>
<path class="st0" d="M600.7,49.9c0.5,32.2,3.7,64.4,9.6,96.2"/>
<path class="st0" d="M582.4,117.6c21.8-7.1,51.5-16.2,87.2-25.4"/>
<path class="st0" d="M110.6,268c30.2-14.7,62.6-24.1,95.1-32.6C365,193.8,529.3,171.2,694,168.1"/>
<g>
	<path d="M155.5,41.2c-5.1,6.1-9.5,12.4-13.4,19.1c-3.9,6.6-7.5,13.3-10.8,20c-3.3,6.7-6.4,13.3-9.4,19.8c-3,6.5-6.1,12.7-9.3,18.6
		c-3.2,5.9-6.7,11.3-10.3,16.3c-3.7,5-7.8,9.3-12.5,12.9c-4.7,3.6-10,6.5-16,8.5c-6,2.1-12.9,3.1-20.6,3.1c-6.9,0-12.9-0.9-18.2-2.6
		c-5.3-1.8-9.7-4.2-13.3-7.2c-3.6-3.1-6.3-6.7-8.1-10.8c-1.8-4.1-2.8-8.6-2.8-13.4c0-1.8,0.1-3.6,0.4-5.3c0.2-1.7,0.6-3.2,1.1-4.6
		l4.5,1.3c-0.4,1.2-0.7,2.5-0.9,4c-0.2,1.5-0.4,3-0.4,4.5c0,4.9,1,9.3,3.1,13c2.1,3.7,4.8,6.8,8.2,9.2c3.4,2.4,7.3,4.3,11.6,5.5
		c4.3,1.2,8.8,1.8,13.3,1.8c6.6,0,12.4-1.1,17.5-3.4c5.1-2.3,9.7-5.3,13.9-9.2c4.2-3.9,8-8.5,11.4-13.7c3.4-5.2,6.7-10.9,10-16.9
		c3.2-6,6.4-12.3,9.7-18.8c3.2-6.5,6.8-12.9,10.5-19.3c3.8-6.4,7.9-12.5,12.5-18.5c4.5-5.9,9.7-11.3,15.5-16.2L155.5,41.2z
		 M218.2,20.2c-3.9,2.5-7.9,4.6-12.1,6.3c-4.2,1.7-8.5,3.1-13,4.1c-4.5,1-9.1,1.7-13.8,2.1c-4.7,0.4-9.5,0.6-14.3,0.6
		c-6.1,0-12.5-0.3-19.2-0.9c-6.7-0.6-13.4-1.3-20.1-2c-6.6-0.7-13.1-1.4-19.3-2c-6.2-0.6-11.8-0.9-16.8-0.9c-7.3,0-14,0.9-20,2.8
		c-6,1.9-11.2,4.5-15.5,8c-4.3,3.4-7.6,7.5-10,12.3c-2.4,4.8-3.5,10.1-3.5,16c0,4.1,0.7,7.8,2.1,11.1c1.4,3.3,3.4,6.1,6,8.4
		c2.6,2.3,5.7,4,9.3,5.2c3.6,1.2,7.7,1.8,12.1,1.8c3.8,0,7.7-0.5,11.8-1.4c4.1-0.9,8-2.3,12-4.2l1.9,3.7c-4,2.3-8.6,4.2-13.8,5.5
		c-5.2,1.4-10.5,2.1-15.8,2.1c-4.6,0-9-0.7-13.2-2c-4.2-1.3-8-3.3-11.3-5.9c-3.3-2.6-5.9-6-7.9-10c-2-4-2.9-8.7-2.9-14.2
		c0-5.4,0.8-10.2,2.4-14.4c1.6-4.3,3.8-8,6.6-11.3c2.8-3.3,6.1-6.1,9.8-8.4s7.8-4.2,12.1-5.8c4.3-1.5,8.8-2.6,13.4-3.3
		c4.6-0.7,9.3-1,13.9-1c5.5,0,11.4,0.3,17.6,1c6.3,0.7,12.7,1.4,19.3,2.1c6.6,0.7,13.1,1.4,19.7,2.1c6.6,0.7,13,1,19.2,1
		c4.6,0,9.2-0.2,13.8-0.6c4.5-0.4,8.9-1.1,13.2-2c4.3-1,8.4-2.2,12.3-3.8c4-1.6,7.8-3.6,11.4-5.9L218.2,20.2z"/>
	<path d="M191.8,122.7c0.2,0.1,0.5,0.1,0.7,0.1c0.2,0,0.5,0,0.8,0c1.7,0,3.2-0.2,4.6-0.5c1.4-0.3,2.6-0.8,3.8-1.6
		c1.2-0.7,2.3-1.7,3.4-2.8s2.1-2.6,3.1-4.2l3.2,2.5c-2.9,4.1-5.8,6.9-8.8,8.5c-3,1.6-6.3,2.4-9.7,2.4c-1.3,0-2.4-0.1-3.3-0.4
		c-2.6,4.3-5.3,7.9-8.2,10.9c-2.9,3-5.9,5.5-8.9,7.4c-3,1.9-6,3.3-9,4.2c-3,0.9-5.7,1.3-8.3,1.3c-2.6,0-5-0.5-7.3-1.4
		c-2.2-0.9-4.2-2.2-5.8-4c-1.6-1.7-2.9-3.8-3.8-6.2c-0.9-2.4-1.3-5.1-1.3-8c0-3,0.5-6,1.4-9.1c1-3.1,2.2-6.2,3.9-9.2
		c1.6-3,3.6-6,5.8-8.8c2.2-2.8,4.6-5.5,7.1-7.9c2.6-2.4,5.2-4.6,8-6.6c2.7-2,5.5-3.6,8.2-4.8l2.9,3.8c-3.2,2.3-6.4,5.1-9.6,8.6
		c-3.2,3.5-6.2,7.2-8.8,11.3c-2.7,4.1-4.8,8.4-6.5,12.8c-1.7,4.4-2.5,8.7-2.5,12.9c0,3.8,0.8,6.7,2.5,8.7c1.7,2.1,4.2,3.1,7.6,3.1
		c2.6,0,5.2-0.5,7.8-1.6c2.6-1.1,5.1-2.5,7.5-4.4c2.4-1.8,4.8-4,7.1-6.6c2.3-2.5,4.4-5.2,6.4-8.1c-1.7-1-3.2-2.4-4.6-4.1
		c-1.3-1.7-2.4-3.6-3.3-5.8c-0.9-2.2-1.6-4.5-2-7c-0.4-2.5-0.7-5.1-0.7-7.7c0-2.6,0.3-5.1,1-7.4c0.7-2.3,1.6-4.4,2.7-6.1
		c1.2-1.8,2.5-3.1,4.1-4.2c1.5-1,3.2-1.5,5.1-1.5c1.7,0,3.2,0.4,4.5,1.3c1.3,0.9,2.4,2.1,3.3,3.6c0.9,1.5,1.6,3.3,2.1,5.4
		c0.5,2.1,0.7,4.3,0.7,6.7c0,1.8-0.1,3.8-0.4,5.9c-0.3,2.1-0.7,4.3-1.3,6.5c-0.6,2.2-1.3,4.3-2.1,6.4
		C193.8,119.2,192.8,121.1,191.8,122.7z M179.6,100.5c0,1.7,0.1,3.6,0.4,5.6c0.3,2,0.8,4,1.4,5.9c0.7,1.9,1.5,3.7,2.5,5.3
		c1,1.6,2.3,2.9,3.8,3.9c1.1-2.1,2-4.2,2.7-6.4c0.7-2.2,1.4-4.3,1.9-6.3c0.5-2,0.9-3.9,1.1-5.7c0.2-1.8,0.3-3.3,0.3-4.6
		c0-1.8-0.1-3.4-0.4-4.9c-0.3-1.5-0.7-2.8-1.2-3.9c-0.5-1.1-1.1-2-1.9-2.6c-0.7-0.6-1.6-0.9-2.5-0.9c-1.2,0-2.3,0.4-3.3,1.2
		c-1,0.8-1.9,1.9-2.6,3.2c-0.7,1.3-1.3,2.9-1.7,4.6C179.8,96.7,179.6,98.6,179.6,100.5z"/>
	<path d="M282.5,98.4c1.7-2,3.5-3.9,5.4-5.6c1.8-1.7,3.7-3.2,5.5-4.5c1.8-1.3,3.7-2.2,5.5-2.9c1.8-0.7,3.6-1,5.2-1
		c1.3,0,2.6,0.2,3.9,0.7c1.3,0.4,2.4,1.1,3.4,2.1c1,0.9,1.8,2.1,2.4,3.5c0.6,1.4,0.9,3.1,0.9,5.1c0,2.9-0.4,5.7-1.2,8.4
		c-0.8,2.8-1.8,5.5-2.9,8.1c-1.2,2.6-2.5,5.2-3.8,7.6c-1.3,2.4-2.6,4.8-3.8,7c-1.2,2.2-2.2,4.3-2.9,6.3c-0.8,2-1.2,3.8-1.2,5.5
		c0,1.3,0.3,2.2,1,2.8c0.7,0.6,1.4,0.8,2.2,0.8c1.5,0,3.4-0.9,5.5-2.7c2.1-1.8,4.3-4.1,6.7-6.9c2.3-2.8,4.7-5.9,7-9.2
		c2.4-3.4,4.6-6.7,6.7-9.9l3.2,2.5c-0.8,1.3-1.8,2.9-3,5c-1.2,2.1-2.6,4.3-4.2,6.6c-1.6,2.4-3.4,4.7-5.3,7.1c-1.9,2.4-3.9,4.6-6,6.5
		c-2.1,1.9-4.3,3.5-6.6,4.7c-2.3,1.2-4.5,1.8-6.8,1.8c-1.3,0-2.5-0.2-3.6-0.5c-1.2-0.4-2.2-0.9-3.1-1.7c-0.9-0.8-1.6-1.9-2.1-3.2
		c-0.5-1.3-0.8-2.9-0.8-4.8c0-2.6,0.4-5.2,1.3-7.7c0.9-2.5,2-5,3.4-7.4c1.4-2.4,2.8-4.9,4.4-7.3c1.6-2.4,3.1-4.8,4.4-7.2
		c1.4-2.4,2.5-4.8,3.4-7.2c0.9-2.4,1.3-4.9,1.3-7.4c0-1.3-0.2-2.2-0.7-3c-0.5-0.7-1.4-1.1-2.7-1.1c-2.1,0-4.3,0.8-6.6,2.5
		c-2.3,1.7-4.7,4-7.2,6.8s-5.1,6.2-7.7,10c-2.6,3.8-5.2,7.8-7.8,12c-2.6,4.2-5.2,8.5-7.7,12.8c-2.5,4.3-5,8.5-7.3,12.5l-7.5-3.9
		c3.2-6.5,6.1-12.3,8.9-17.4c2.8-5.1,5.2-9.8,7.3-13.9c2.1-4.1,3.7-7.9,4.9-11.3c1.2-3.4,1.8-6.7,1.8-9.7c0-0.6-0.1-1.2-0.2-1.8
		c-0.1-0.6-0.4-1.2-0.7-1.7c-0.4-0.5-0.8-0.9-1.4-1.2c-0.6-0.3-1.3-0.5-2.2-0.5c-2,0-4.1,0.9-6.2,2.8c-2.1,1.9-4.3,4.4-6.6,7.7
		c-2.3,3.2-4.8,7-7.5,11.3c-2.7,4.3-5.5,8.9-8.6,13.7c-3.1,4.8-6.4,9.8-10,14.9c-3.6,5.1-7.5,10-11.7,14.8l-6.2-4.1
		c1.9-2.9,3.9-5.9,6-9.1c2.1-3.2,4.2-6.4,6.3-9.7c2.1-3.3,4-6.5,5.9-9.8c1.9-3.2,3.5-6.3,5-9.2c1.4-2.9,2.6-5.6,3.4-8
		c0.8-2.4,1.3-4.5,1.3-6.3c0-2-0.5-3.5-1.5-4.4c-1-0.9-2.3-1.3-3.9-1.3c-1.9,0-3.8,0.7-5.6,2.1c-1.8,1.4-3.7,3.3-5.7,5.8
		c-2,2.5-4.1,5.5-6.4,9c-2.3,3.5-4.9,7.3-7.8,11.5l-3.2-2.5c3.2-5,6-9.4,8.5-13.2c2.5-3.8,4.9-7,7.2-9.6c2.3-2.6,4.5-4.5,6.7-5.8
		c2.2-1.3,4.7-2,7.3-2c0.8,0,1.8,0.1,3,0.4c1.2,0.3,2.4,0.8,3.6,1.6c1.2,0.8,2.2,1.8,3.2,3.2c0.9,1.4,1.5,3.1,1.7,5.3
		c3.3-4.3,6.8-7.7,10.5-10.3c3.6-2.6,7.1-3.8,10.3-3.8c2.3,0,4.3,0.5,5.9,1.4c1.6,0.9,2.9,2.1,3.9,3.6c1,1.5,1.7,3.2,2.1,5
		c0.4,1.9,0.7,3.8,0.7,5.7c0,0.5,0,1,0,1.5C282.6,97.4,282.5,97.9,282.5,98.4z"/>
	<path d="M440.2,86.7c0.8,0.7,2,1.4,3.5,2.3c1.5,0.8,3.4,1.6,5.6,2.2c2.2,0.7,4.7,1,7.5,1c4.7,0,9.1-0.9,13.3-2.7
		c4.2-1.8,8-4.1,11.6-7.1c3.5-2.9,6.7-6.3,9.6-10c2.8-3.8,5.2-7.6,7.2-11.5c2-3.9,3.5-7.8,4.6-11.6c1.1-3.8,1.6-7.2,1.6-10.3
		c0-3.6-0.5-6.8-1.6-9.5s-2.5-4.9-4.3-6.6c-1.8-1.7-4-3-6.4-3.8c-2.5-0.8-5.1-1.3-8-1.3c-5.7,0-11.3,1-16.8,3
		c-5.6,2-11,4.7-16.2,8.2c-5.2,3.5-10.3,7.5-15.1,12.2c-4.8,4.7-9.3,9.7-13.5,15.1c-4.2,5.4-8,10.9-11.3,16.8
		c-3.4,5.8-6.3,11.6-8.7,17.3s-4.3,11.3-5.6,16.7c-1.3,5.4-2,10.4-2,14.9c0,5.2,0.8,10.2,2.3,14.8c1.5,4.6,3.8,8.7,6.8,12.2
		c3,3.5,6.8,6.2,11.4,8.2c4.6,2,9.9,3,15.9,3c5.4,0,11-0.8,16.9-2.5c5.8-1.7,11.7-4.3,17.5-8s11.5-8.5,17.2-14.3
		c5.7-5.9,11.1-13,16.3-21.4l3.2,2.5c-5.6,9.1-11.4,16.8-17.5,23s-12.2,11.2-18.2,15c-6.1,3.8-12.1,6.5-18,8.1
		c-5.9,1.6-11.5,2.5-16.8,2.5c-7.6,0-14.4-1.4-20.2-4.1c-5.8-2.7-10.7-6.3-14.7-10.7c-3.9-4.4-6.9-9.4-8.9-15.1
		c-2-5.6-3-11.4-3-17.2c0-5,0.7-10.3,2.1-16c1.4-5.7,3.4-11.4,5.9-17.2c2.6-5.8,5.6-11.7,9.2-17.5c3.6-5.8,7.6-11.4,12.1-16.8
		c4.4-5.3,9.2-10.3,14.4-14.9c5.2-4.6,10.6-8.6,16.3-11.9c5.7-3.4,11.6-6,17.6-8c6-1.9,12.2-2.9,18.5-2.9c3.9,0,7.7,0.6,11.3,1.7
		c3.6,1.1,6.8,2.8,9.5,5.2c2.7,2.4,4.9,5.4,6.5,9.2c1.6,3.7,2.4,8.2,2.4,13.4c0,3.5-0.5,7.3-1.6,11.4s-2.6,8.2-4.7,12.4
		c-2.1,4.1-4.6,8.1-7.5,12c-2.9,3.9-6.3,7.3-10,10.2c-3.7,2.9-7.8,5.3-12.3,7.1s-9.3,2.7-14.3,2.7c-5.4,0-10.1-0.9-14.2-2.7
		c-4-1.8-7.5-4.1-10.3-6.7l2.7-2.9C438.9,85.6,439.3,86,440.2,86.7z"/>
	<path d="M549.6,122.7c0.2,0.1,0.5,0.1,0.7,0.1c0.2,0,0.5,0,0.8,0c1.7,0,3.2-0.2,4.6-0.5c1.4-0.3,2.6-0.8,3.8-1.6
		c1.2-0.7,2.3-1.7,3.4-2.8s2.1-2.6,3.1-4.2l3.2,2.5c-2.9,4.1-5.8,6.9-8.8,8.5c-3,1.6-6.3,2.4-9.7,2.4c-1.3,0-2.4-0.1-3.3-0.4
		c-2.6,4.3-5.3,7.9-8.2,10.9s-5.9,5.5-8.9,7.4c-3,1.9-6,3.3-9,4.2c-3,0.9-5.7,1.3-8.3,1.3c-2.6,0-5-0.5-7.3-1.4
		c-2.2-0.9-4.2-2.2-5.8-4c-1.6-1.7-2.9-3.8-3.8-6.2c-0.9-2.4-1.3-5.1-1.3-8c0-3,0.5-6,1.4-9.1c1-3.1,2.2-6.2,3.9-9.2s3.6-6,5.8-8.8
		c2.2-2.8,4.6-5.5,7.1-7.9c2.6-2.4,5.2-4.6,8-6.6s5.5-3.6,8.2-4.8l2.9,3.8c-3.2,2.3-6.4,5.1-9.6,8.6c-3.2,3.5-6.2,7.2-8.8,11.3
		c-2.7,4.1-4.8,8.4-6.5,12.8c-1.7,4.4-2.5,8.7-2.5,12.9c0,3.8,0.8,6.7,2.5,8.7s4.2,3.1,7.6,3.1c2.6,0,5.2-0.5,7.8-1.6
		s5.1-2.5,7.5-4.4c2.4-1.8,4.8-4,7.1-6.6c2.3-2.5,4.4-5.2,6.4-8.1c-1.7-1-3.2-2.4-4.6-4.1c-1.3-1.7-2.4-3.6-3.3-5.8
		c-0.9-2.2-1.6-4.5-2-7c-0.4-2.5-0.7-5.1-0.7-7.7c0-2.6,0.3-5.1,1-7.4s1.6-4.4,2.7-6.1c1.2-1.8,2.5-3.1,4.1-4.2
		c1.5-1,3.2-1.5,5.1-1.5c1.7,0,3.2,0.4,4.5,1.3c1.3,0.9,2.4,2.1,3.3,3.6c0.9,1.5,1.6,3.3,2.1,5.4c0.5,2.1,0.7,4.3,0.7,6.7
		c0,1.8-0.1,3.8-0.4,5.9c-0.3,2.1-0.7,4.3-1.3,6.5c-0.6,2.2-1.3,4.3-2.1,6.4C551.6,119.2,550.7,121.1,549.6,122.7z M537.5,100.5
		c0,1.7,0.1,3.6,0.4,5.6c0.3,2,0.8,4,1.4,5.9c0.7,1.9,1.5,3.7,2.5,5.3c1,1.6,2.3,2.9,3.8,3.9c1.1-2.1,2-4.2,2.7-6.4
		c0.7-2.2,1.4-4.3,1.9-6.3c0.5-2,0.9-3.9,1.1-5.7c0.2-1.8,0.3-3.3,0.3-4.6c0-1.8-0.1-3.4-0.4-4.9c-0.3-1.5-0.7-2.8-1.2-3.9
		c-0.5-1.1-1.1-2-1.9-2.6c-0.7-0.6-1.6-0.9-2.5-0.9c-1.2,0-2.3,0.4-3.3,1.2c-1,0.8-1.9,1.9-2.6,3.2c-0.7,1.3-1.3,2.9-1.7,4.6
		C537.7,96.7,537.5,98.6,537.5,100.5z"/>
	<path d="M630.7,17c2.1,0,3.8,0.5,5.2,1.5c1.4,1,2.1,2.9,2.1,5.5c0,1.8-0.4,4.1-1.1,6.6c-0.7,2.6-1.8,5.3-3,8.4
		c-1.3,3-2.8,6.2-4.5,9.5c-1.7,3.3-3.6,6.6-5.6,9.9c-2,3.3-4.1,6.5-6.3,9.6c-2.2,3.1-4.3,6-6.5,8.6c-4.3,5.3-8,9.8-11.1,13.4
		c-3.1,3.6-5.8,6.7-8.1,9.2c-2.3,2.5-4.2,4.6-5.7,6.2c-1.5,1.6-2.9,2.9-4.1,4.1c-1.2,1.1-2.3,2.2-3.3,3.1c-1,0.9-2.1,2-3.1,3.1
		c-0.5,2.3-0.7,4.4-0.7,6.5c0,2.1,0,3.9,0,5.7c0,5.2,0.8,9,2.5,11.5c1.7,2.5,4,3.8,7.1,3.8c2,0,4.1-0.5,6.1-1.6
		c2.1-1,4.1-2.4,6.1-4.1c2-1.7,4-3.6,5.9-5.7c1.9-2.1,3.7-4.3,5.4-6.4c1.7-2.2,3.2-4.3,4.6-6.3c1.4-2,2.6-3.8,3.6-5.3l3.3,2.5
		c-0.2,0.2-0.8,1.2-1.7,2.8c-1,1.6-2.3,3.6-3.9,5.9s-3.5,4.8-5.7,7.5c-2.2,2.7-4.6,5.1-7.1,7.4c-2.6,2.3-5.3,4.1-8.1,5.6
		c-2.8,1.5-5.7,2.2-8.6,2.2c-2.4,0-4.8-0.5-7-1.4c-2.2-0.9-4.2-2.4-5.9-4.4c-1.7-2-3.1-4.5-4.1-7.6c-1-3.1-1.6-6.8-1.6-11.2
		c0-5.4,0.6-11.1,1.9-17c1.3-5.9,3-11.9,5.2-17.9c2.2-6,4.8-11.9,7.8-17.7c3-5.8,6.2-11.4,9.5-16.7c3.4-5.3,6.9-10.2,10.5-14.7
		c3.7-4.5,7.3-8.4,10.8-11.7c3.5-3.3,7-5.8,10.2-7.7C625,18,628,17,630.7,17z M577.2,107.6c5.1-5.2,10-10.6,14.7-15.9
		c4.7-5.4,9.2-10.7,13.3-16c4.1-5.3,7.9-10.4,11.4-15.4c3.5-5,6.4-9.7,8.8-14.1c2.4-4.4,4.3-8.4,5.7-12.1c1.4-3.6,2.1-6.8,2.1-9.4
		c0-0.5-0.2-1.1-0.7-1.9c-0.5-0.8-1-1.2-1.7-1.2c-1.8,0-4.3,1.2-7.3,3.7c-3,2.4-6.3,5.8-9.9,10c-3.5,4.2-7.2,9.1-11,14.7
		c-3.8,5.6-7.3,11.6-10.7,18c-3.3,6.4-6.3,13-8.9,19.7C580.3,94.5,578.4,101.1,577.2,107.6z"/>
	<path d="M680.9,17c2.1,0,3.8,0.5,5.2,1.5c1.4,1,2.1,2.9,2.1,5.5c0,1.8-0.4,4.1-1.1,6.6c-0.7,2.6-1.8,5.3-3,8.4
		c-1.3,3-2.8,6.2-4.5,9.5c-1.7,3.3-3.6,6.6-5.6,9.9c-2,3.3-4.1,6.5-6.3,9.6c-2.2,3.1-4.3,6-6.5,8.6c-4.3,5.3-8,9.8-11.1,13.4
		c-3.1,3.6-5.8,6.7-8.1,9.2c-2.3,2.5-4.2,4.6-5.7,6.2c-1.5,1.6-2.9,2.9-4.1,4.1c-1.2,1.1-2.3,2.2-3.3,3.1c-1,0.9-2.1,2-3.1,3.1
		c-0.5,2.3-0.7,4.4-0.7,6.5c0,2.1,0,3.9,0,5.7c0,5.2,0.8,9,2.5,11.5c1.7,2.5,4,3.8,7.1,3.8c2,0,4.1-0.5,6.1-1.6
		c2.1-1,4.1-2.4,6.1-4.1c2-1.7,4-3.6,5.9-5.7c1.9-2.1,3.7-4.3,5.4-6.4c1.7-2.2,3.2-4.3,4.6-6.3c1.4-2,2.6-3.8,3.6-5.3l3.3,2.5
		c-0.2,0.2-0.8,1.2-1.7,2.8c-1,1.6-2.3,3.6-3.9,5.9s-3.5,4.8-5.7,7.5c-2.2,2.7-4.6,5.1-7.1,7.4c-2.6,2.3-5.3,4.1-8.1,5.6
		c-2.8,1.5-5.7,2.2-8.6,2.2c-2.4,0-4.8-0.5-7-1.4c-2.2-0.9-4.2-2.4-5.9-4.4c-1.7-2-3.1-4.5-4.1-7.6c-1-3.1-1.6-6.8-1.6-11.2
		c0-5.4,0.6-11.1,1.9-17c1.3-5.9,3-11.9,5.2-17.9c2.2-6,4.8-11.9,7.8-17.7c3-5.8,6.2-11.4,9.5-16.7c3.4-5.3,6.9-10.2,10.5-14.7
		c3.7-4.5,7.3-8.4,10.8-11.7c3.5-3.3,7-5.8,10.2-7.7C675.2,18,678.2,17,680.9,17z M627.4,107.6c5.1-5.2,10-10.6,14.7-15.9
		c4.7-5.4,9.2-10.7,13.3-16c4.1-5.3,7.9-10.4,11.4-15.4c3.5-5,6.4-9.7,8.8-14.1c2.4-4.4,4.3-8.4,5.7-12.1c1.4-3.6,2.1-6.8,2.1-9.4
		c0-0.5-0.2-1.1-0.7-1.9c-0.5-0.8-1-1.2-1.7-1.2c-1.8,0-4.3,1.2-7.3,3.7c-3,2.4-6.3,5.8-9.9,10c-3.5,4.2-7.2,9.1-11,14.7
		c-3.8,5.6-7.3,11.6-10.7,18c-3.3,6.4-6.3,13-8.9,19.7C630.6,94.5,628.6,101.1,627.4,107.6z"/>
	<path d="M673.2,126.7c-0.1,0.7-0.2,1.4-0.3,2.1c-0.1,0.7-0.1,1.4-0.1,2.1c0,2.1,0.3,4.2,0.9,6.1c0.6,1.9,1.5,3.6,2.8,5.1
		c1.2,1.5,2.7,2.6,4.6,3.4c1.8,0.8,3.9,1.2,6.2,1.2c7.8,0,15.3-2.6,22.6-8c7.3-5.3,14.5-13.7,21.7-25.2l3,2.7
		c-3.9,6.6-7.9,12.1-12,16.6c-4.1,4.5-8.1,8.1-12.1,10.9c-4,2.8-8,4.8-11.8,6.1c-3.9,1.3-7.6,1.9-11.1,1.9c-2.6,0-5.3-0.4-8.1-1.1
		s-5.5-1.9-7.9-3.6c-2.4-1.7-4.4-3.9-6-6.7c-1.6-2.8-2.4-6.3-2.4-10.5c0-4.5,0.8-8.8,2.3-12.9c1.5-4.1,3.5-8,5.9-11.6
		c2.4-3.6,5.2-6.8,8.4-9.8c3.2-2.9,6.4-5.5,9.6-7.6c3.2-2.1,6.4-3.7,9.5-4.9c3.1-1.2,5.8-1.7,8.2-1.7c1.5,0,3.1,0.2,4.7,0.7
		c1.6,0.5,3.1,1.2,4.3,2.2c1.3,1,2.3,2.4,3.1,4c0.8,1.7,1.2,3.7,1.2,6c0,3.2-0.7,6.1-2.2,8.9c-1.5,2.8-3.4,5.3-5.9,7.7
		c-2.4,2.4-5.3,4.5-8.5,6.3c-3.2,1.9-6.6,3.5-10.1,4.8c-3.5,1.3-7.1,2.4-10.6,3.1C679.8,126.2,676.4,126.6,673.2,126.7z
		 M673.9,122.8c4-0.4,7.7-1.3,11.3-2.5c3.5-1.3,6.7-2.8,9.7-4.6c2.9-1.8,5.5-3.8,7.8-5.9c2.3-2.1,4.2-4.3,5.8-6.5
		c1.5-2.2,2.7-4.3,3.6-6.3c0.8-2,1.3-3.8,1.3-5.5s-0.4-2.9-1.3-3.8c-0.9-1-1.9-1.4-3.1-1.4c-2.6,0-5.6,0.9-8.8,2.8
		c-3.3,1.9-6.6,4.5-9.8,7.8c-3.3,3.3-6.4,7.2-9.2,11.7C678.1,112.9,675.7,117.7,673.9,122.8z"/>
	<path d="M749.8,73.3c0.6-1,1.7-2.8,3.2-5.3c1.5-2.5,3.3-5.3,5.4-8.3c2.1-3,4.3-6.1,6.7-9.2c2.4-3.1,4.8-5.7,7.1-7.8l4,2.4
		c-2.6,4.2-5.2,8.7-7.9,13.4c-2.7,4.7-5.3,9.6-8,14.7h29.1l-1.8,4.6h-29.8c-2.7,5.4-5.2,10.7-7.6,16c-2.4,5.3-4.4,10.4-6.2,15.2
		c-1.8,4.8-3.2,9.3-4.2,13.5c-1,4.2-1.5,7.8-1.5,10.9c0,3.9,0.9,6.7,2.7,8.4s4,2.5,6.6,2.5c2.3,0,4.7-0.7,7.1-2.1
		c2.4-1.4,4.8-3.2,7.2-5.3c2.4-2.1,4.6-4.5,6.7-7.1c2.1-2.6,4-5,5.6-7.2c1.6-2.3,3-4.2,4.1-5.9s1.7-2.8,2-3.2l3.3,2.5
		c-2.1,3.5-4.4,7.1-7.1,11c-2.6,3.9-5.5,7.5-8.7,10.8c-3.2,3.3-6.7,6-10.4,8.2s-7.8,3.3-12.2,3.3c-2.7,0-5-0.5-7-1.4
		c-2-1-3.7-2.3-5-4s-2.4-3.7-3.1-6c-0.7-2.3-1-4.9-1-7.6c0-1.8,0.3-4.3,0.8-7.6c0.6-3.3,1.5-7.2,2.9-11.7c1.4-4.5,3.2-9.5,5.5-15.1
		c2.3-5.6,5.2-11.6,8.7-18h-14.8l1.8-4.6H749.8z"/>
</g>
</svg>
